<?xml version="1.0" encoding="utf-8"?>
<!-- Generator: Adobe Illustrator 24.1.0, SVG Export Plug-In . SVG Version: 6.00 Build 0)  -->
<svg version="1.1" id="Layer_1" xmlns="http://www.w3.org/2000/svg" xmlns:xlink="http://www.w3.org/1999/xlink" x="0px" y="0px"
	 viewBox="0 0 56 56" style="enable-background:new 0 0 56 56;" xml:space="preserve">
<style type="text/css">
	.st0{fill:#606060;}
</style>
<g id="Layer_1_1_">
	<path d="M46.2,6.3c1.7,0,3.5,1.7,3.5,3.5v36.4c0,1.7-1.7,3.5-3.5,3.5H9.8c-1.7,0-3.5-1.7-3.5-3.5V9.8c0-1.7,1.7-3.5,3.5-3.5H46.2
		 M46.2,2H9.8C5.5,2,2,5.5,2,9.8v36.4C2,50.5,5.5,54,9.8,54h36.4c4.3,0,7.8-3.5,7.8-7.8V9.8C54,5.5,50.5,2,46.2,2L46.2,2z"/>
</g>
<path class="st0" d="M44.6,18.6l-0.1,0.2L27.3,40.7C26.5,42,25.2,42,24.7,42s-1.2,0-2-0.7l-10.6-8.4c-0.6-0.6-1-1.3-1.1-2
	c-0.2-0.9,0.1-1.8,0.7-2.4c0.6-0.6,1.3-1,2-1.1c0.9-0.2,1.7,0.1,2.4,0.7l8,6.4l15.4-19.4c1.3-1.3,3.1-1.2,4.2-0.7l0.1,0.1l0.1,0.1
	C45.3,15.7,45.2,17.5,44.6,18.6z"/>
</svg>
