<?xml version="1.0" encoding="utf-8"?>
<!-- Generator: Adobe Illustrator 21.0.2, SVG Export Plug-In . SVG Version: 6.00 Build 0)  -->
<svg version="1.1" id="Layer_1" xmlns="http://www.w3.org/2000/svg" xmlns:xlink="http://www.w3.org/1999/xlink" x="0px" y="0px"
	 viewBox="0 0 14 14" style="enable-background:new 0 0 14 14;" xml:space="preserve">
<path d="M12.5,2H10V1.6C10,0.7,9.3,0,8.5,0H5.5C4.7,0,4,0.7,4,1.6V2H1.5C1.2,2,1,2.2,1,2.5S1.2,3,1.5,3H2v8.8C2,13.1,3.3,14,4.4,14
	h5.1c1.1,0,2.4-0.9,2.4-2.2V3h0.5C12.8,3,13,2.8,13,2.5S12.8,2,12.5,2z M5,1.6C5,1.3,5.2,1,5.5,1h2.9C8.8,1,9,1.3,9,1.6V2H5V1.6z
	 M11,11.8c0,0.7-0.8,1.2-1.4,1.2H4.4C3.8,13,3,12.4,3,11.8V3h8V11.8z M5,9.5v-4C5,5.2,5.2,5,5.5,5S6,5.2,6,5.5v4
	C6,9.8,5.8,10,5.5,10S5,9.8,5,9.5z M8,9.5v-4C8,5.2,8.2,5,8.5,5S9,5.2,9,5.5v4C9,9.8,8.8,10,8.5,10S8,9.8,8,9.5z"/>
</svg>
